<svg xmlns="http://www.w3.org/2000/svg" version="1.1" xmlns:xlink="http://www.w3.org/1999/xlink" xmlns:svgjs="http://svgjs.dev/svgjs" width="1440" height="560" preserveAspectRatio="none" viewBox="0 0 1440 560"><g mask="url(&quot;#SvgjsMask1000&quot;)" fill="none"><rect width="1440" height="560" x="0" y="0" fill="#0e2a47"></rect><path d="M-68.65 536.57L-68.65 536.57" stroke="#132e65" stroke-width="1.5"></path><path d="M-68.65 536.57L50.67 536.91" stroke="#132e65" stroke-width="1.5"></path><path d="M-68.65 536.57L-71.96 671.94" stroke="#132e65" stroke-width="1.5"></path><path d="M-68.65 536.57L69.93 677.52" stroke="#132e65" stroke-width="1.5"></path><path d="M-68.65 536.57L53.69 374.84" stroke="#132e65" stroke-width="1.5"></path><path d="M-71.96 671.94L-71.96 671.94" stroke="#132e65" stroke-width="1.5"></path><path d="M-71.96 671.94L69.93 677.52" stroke="#132e65" stroke-width="1.5"></path><path d="M-71.96 671.94L50.67 536.91" stroke="#132e65" stroke-width="1.5"></path><path d="M-71.96 671.94L53.69 374.84" stroke="#132e65" stroke-width="1.5"></path><path d="M53.69 374.84L53.69 374.84" stroke="#132e65" stroke-width="1.5"></path><path d="M53.69 374.84L191.17 412.45" stroke="#132e65" stroke-width="1.5"></path><path d="M53.69 374.84L50.67 536.91" stroke="#132e65" stroke-width="1.5"></path><path d="M50.67 536.91L50.67 536.91" stroke="#132e65" stroke-width="1.5"></path><path d="M50.67 536.91L69.93 677.52" stroke="#132e65" stroke-width="1.5"></path><path d="M50.67 536.91L191.17 412.45" stroke="#132e65" stroke-width="1.5"></path><path d="M69.93 677.52L69.93 677.52" stroke="#132e65" stroke-width="1.5"></path><path d="M69.93 677.52L251.39 694.44" stroke="#132e65" stroke-width="1.5"></path><path d="M191.17 412.45L191.17 412.45" stroke="#132e65" stroke-width="1.5"></path><path d="M191.17 412.45L257.23 493.05" stroke="#132e65" stroke-width="1.5"></path><path d="M191.17 412.45L347.97 347.79" stroke="#132e65" stroke-width="1.5"></path><path d="M257.23 493.05L257.23 493.05" stroke="#132e65" stroke-width="1.5"></path><path d="M257.23 493.05L349.93 560.04" stroke="#132e65" stroke-width="1.5"></path><path d="M257.23 493.05L347.97 347.79" stroke="#132e65" stroke-width="1.5"></path><path d="M251.39 694.44L251.39 694.44" stroke="#132e65" stroke-width="1.5"></path><path d="M251.39 694.44L389.61 669.55" stroke="#132e65" stroke-width="1.5"></path><path d="M251.39 694.44L349.93 560.04" stroke="#132e65" stroke-width="1.5"></path><path d="M347.97 347.79L347.97 347.79" stroke="#132e65" stroke-width="1.5"></path><path d="M349.93 560.04L349.93 560.04" stroke="#132e65" stroke-width="1.5"></path><path d="M349.93 560.04L389.61 669.55" stroke="#132e65" stroke-width="1.5"></path><path d="M349.93 560.04L502.15 517.24" stroke="#132e65" stroke-width="1.5"></path><path d="M389.61 669.55L389.61 669.55" stroke="#132e65" stroke-width="1.5"></path><path d="M389.61 669.55L510.28 656.72" stroke="#132e65" stroke-width="1.5"></path><path d="M389.61 669.55L502.15 517.24" stroke="#132e65" stroke-width="1.5"></path><path d="M389.61 669.55L257.23 493.05" stroke="#132e65" stroke-width="1.5"></path><path d="M523.52 382.47L523.52 382.47" stroke="#132e65" stroke-width="1.5"></path><path d="M523.52 382.47L502.15 517.24" stroke="#132e65" stroke-width="1.5"></path><path d="M523.52 382.47L698.95 358.94" stroke="#132e65" stroke-width="1.5"></path><path d="M523.52 382.47L347.97 347.79" stroke="#132e65" stroke-width="1.5"></path><path d="M502.15 517.24L502.15 517.24" stroke="#132e65" stroke-width="1.5"></path><path d="M510.28 656.72L510.28 656.72" stroke="#132e65" stroke-width="1.5"></path><path d="M510.28 656.72L502.15 517.24" stroke="#132e65" stroke-width="1.5"></path><path d="M689.31 204.8L689.31 204.8" stroke="#132e65" stroke-width="1.5"></path><path d="M689.31 204.8L698.95 358.94" stroke="#132e65" stroke-width="1.5"></path><path d="M689.31 204.8L851.94 214.51" stroke="#132e65" stroke-width="1.5"></path><path d="M689.31 204.8L842.44 369.22" stroke="#132e65" stroke-width="1.5"></path><path d="M689.31 204.8L523.52 382.47" stroke="#132e65" stroke-width="1.5"></path><path d="M689.31 204.8L995.74 229.82" stroke="#132e65" stroke-width="1.5"></path><path d="M689.31 204.8L671.99 528.78" stroke="#132e65" stroke-width="1.5"></path><path d="M698.95 358.94L698.95 358.94" stroke="#132e65" stroke-width="1.5"></path><path d="M698.95 358.94L842.44 369.22" stroke="#132e65" stroke-width="1.5"></path><path d="M698.95 358.94L671.99 528.78" stroke="#132e65" stroke-width="1.5"></path><path d="M671.99 528.78L671.99 528.78" stroke="#132e65" stroke-width="1.5"></path><path d="M671.99 528.78L821.44 549.6" stroke="#132e65" stroke-width="1.5"></path><path d="M671.99 528.78L703.37 690.8" stroke="#132e65" stroke-width="1.5"></path><path d="M671.99 528.78L502.15 517.24" stroke="#132e65" stroke-width="1.5"></path><path d="M703.37 690.8L703.37 690.8" stroke="#132e65" stroke-width="1.5"></path><path d="M703.37 690.8L847.89 700.58" stroke="#132e65" stroke-width="1.5"></path><path d="M703.37 690.8L821.44 549.6" stroke="#132e65" stroke-width="1.5"></path><path d="M703.37 690.8L510.28 656.72" stroke="#132e65" stroke-width="1.5"></path><path d="M851.94 214.51L851.94 214.51" stroke="#132e65" stroke-width="1.5"></path><path d="M851.94 214.51L995.74 229.82" stroke="#132e65" stroke-width="1.5"></path><path d="M842.44 369.22L842.44 369.22" stroke="#132e65" stroke-width="1.5"></path><path d="M842.44 369.22L955.67 401.03" stroke="#132e65" stroke-width="1.5"></path><path d="M821.44 549.6L821.44 549.6" stroke="#132e65" stroke-width="1.5"></path><path d="M821.44 549.6L950.42 540.8" stroke="#132e65" stroke-width="1.5"></path><path d="M821.44 549.6L847.89 700.58" stroke="#132e65" stroke-width="1.5"></path><path d="M821.44 549.6L842.44 369.22" stroke="#132e65" stroke-width="1.5"></path><path d="M821.44 549.6L955.67 401.03" stroke="#132e65" stroke-width="1.5"></path><path d="M847.89 700.58L847.89 700.58" stroke="#132e65" stroke-width="1.5"></path><path d="M847.89 700.58L971.13 694.52" stroke="#132e65" stroke-width="1.5"></path><path d="M966.48 -70.91L966.48 -70.91" stroke="#132e65" stroke-width="1.5"></path><path d="M966.48 -70.91L1094.41 -80.46" stroke="#132e65" stroke-width="1.5"></path><path d="M966.48 -70.91L1004.07 72.53" stroke="#132e65" stroke-width="1.5"></path><path d="M966.48 -70.91L995.74 229.82" stroke="#132e65" stroke-width="1.5"></path><path d="M1004.07 72.53L1004.07 72.53" stroke="#132e65" stroke-width="1.5"></path><path d="M1004.07 72.53L995.74 229.82" stroke="#132e65" stroke-width="1.5"></path><path d="M995.74 229.82L995.74 229.82" stroke="#132e65" stroke-width="1.5"></path><path d="M955.67 401.03L955.67 401.03" stroke="#132e65" stroke-width="1.5"></path><path d="M955.67 401.03L950.42 540.8" stroke="#132e65" stroke-width="1.5"></path><path d="M955.67 401.03L1121.97 343.92" stroke="#132e65" stroke-width="1.5"></path><path d="M955.67 401.03L995.74 229.82" stroke="#132e65" stroke-width="1.5"></path><path d="M955.67 401.03L1111.55 497.08" stroke="#132e65" stroke-width="1.5"></path><path d="M950.42 540.8L950.42 540.8" stroke="#132e65" stroke-width="1.5"></path><path d="M950.42 540.8L971.13 694.52" stroke="#132e65" stroke-width="1.5"></path><path d="M950.42 540.8L1111.55 497.08" stroke="#132e65" stroke-width="1.5"></path><path d="M950.42 540.8L847.89 700.58" stroke="#132e65" stroke-width="1.5"></path><path d="M971.13 694.52L971.13 694.52" stroke="#132e65" stroke-width="1.5"></path><path d="M971.13 694.52L1103.01 656.89" stroke="#132e65" stroke-width="1.5"></path><path d="M1094.41 -80.46L1094.41 -80.46" stroke="#132e65" stroke-width="1.5"></path><path d="M1094.41 -80.46L1004.07 72.53" stroke="#132e65" stroke-width="1.5"></path><path d="M1094.41 -80.46L1271.33 -40.66" stroke="#132e65" stroke-width="1.5"></path><path d="M1094.41 -80.46L1304.48 46.85" stroke="#132e65" stroke-width="1.5"></path><path d="M1094.41 -80.46L995.74 229.82" stroke="#132e65" stroke-width="1.5"></path><path d="M1121.97 343.92L1121.97 343.92" stroke="#132e65" stroke-width="1.5"></path><path d="M1121.97 343.92L1248.13 355.29" stroke="#132e65" stroke-width="1.5"></path><path d="M1121.97 343.92L1111.55 497.08" stroke="#132e65" stroke-width="1.5"></path><path d="M1121.97 343.92L995.74 229.82" stroke="#132e65" stroke-width="1.5"></path><path d="M1111.55 497.08L1111.55 497.08" stroke="#132e65" stroke-width="1.5"></path><path d="M1111.55 497.08L1246.18 552.41" stroke="#132e65" stroke-width="1.5"></path><path d="M1111.55 497.08L1103.01 656.89" stroke="#132e65" stroke-width="1.5"></path><path d="M1103.01 656.89L1103.01 656.89" stroke="#132e65" stroke-width="1.5"></path><path d="M1271.33 -40.66L1271.33 -40.66" stroke="#132e65" stroke-width="1.5"></path><path d="M1271.33 -40.66L1304.48 46.85" stroke="#132e65" stroke-width="1.5"></path><path d="M1271.33 -40.66L1411.03 40.04" stroke="#132e65" stroke-width="1.5"></path><path d="M1271.33 -40.66L1440.2 -61.92" stroke="#132e65" stroke-width="1.5"></path><path d="M1271.33 -40.66L1305.28 217.45" stroke="#132e65" stroke-width="1.5"></path><path d="M1271.33 -40.66L1410.29 196.08" stroke="#132e65" stroke-width="1.5"></path><path d="M1304.48 46.85L1304.48 46.85" stroke="#132e65" stroke-width="1.5"></path><path d="M1304.48 46.85L1411.03 40.04" stroke="#132e65" stroke-width="1.5"></path><path d="M1304.48 46.85L1305.28 217.45" stroke="#132e65" stroke-width="1.5"></path><path d="M1304.48 46.85L1440.2 -61.92" stroke="#132e65" stroke-width="1.5"></path><path d="M1305.28 217.45L1305.28 217.45" stroke="#132e65" stroke-width="1.5"></path><path d="M1305.28 217.45L1410.29 196.08" stroke="#132e65" stroke-width="1.5"></path><path d="M1305.28 217.45L1248.13 355.29" stroke="#132e65" stroke-width="1.5"></path><path d="M1305.28 217.45L1407.32 361.12" stroke="#132e65" stroke-width="1.5"></path><path d="M1305.28 217.45L1411.03 40.04" stroke="#132e65" stroke-width="1.5"></path><path d="M1248.13 355.29L1248.13 355.29" stroke="#132e65" stroke-width="1.5"></path><path d="M1248.13 355.29L1407.32 361.12" stroke="#132e65" stroke-width="1.5"></path><path d="M1246.18 552.41L1246.18 552.41" stroke="#132e65" stroke-width="1.5"></path><path d="M1246.18 552.41L1307.41 654.85" stroke="#132e65" stroke-width="1.5"></path><path d="M1246.18 552.41L1103.01 656.89" stroke="#132e65" stroke-width="1.5"></path><path d="M1307.41 654.85L1307.41 654.85" stroke="#132e65" stroke-width="1.5"></path><path d="M1307.41 654.85L1394.77 687.57" stroke="#132e65" stroke-width="1.5"></path><path d="M1307.41 654.85L1103.01 656.89" stroke="#132e65" stroke-width="1.5"></path><path d="M1307.41 654.85L1111.55 497.08" stroke="#132e65" stroke-width="1.5"></path><path d="M1307.41 654.85L1605.91 646.09" stroke="#132e65" stroke-width="1.5"></path><path d="M1307.41 654.85L1248.13 355.29" stroke="#132e65" stroke-width="1.5"></path><path d="M1440.2 -61.92L1440.2 -61.92" stroke="#132e65" stroke-width="1.5"></path><path d="M1440.2 -61.92L1411.03 40.04" stroke="#132e65" stroke-width="1.5"></path><path d="M1440.2 -61.92L1570.99 -109.62" stroke="#132e65" stroke-width="1.5"></path><path d="M1440.2 -61.92L1410.29 196.08" stroke="#132e65" stroke-width="1.5"></path><path d="M1411.03 40.04L1411.03 40.04" stroke="#132e65" stroke-width="1.5"></path><path d="M1411.03 40.04L1410.29 196.08" stroke="#132e65" stroke-width="1.5"></path><path d="M1410.29 196.08L1410.29 196.08" stroke="#132e65" stroke-width="1.5"></path><path d="M1410.29 196.08L1407.32 361.12" stroke="#132e65" stroke-width="1.5"></path><path d="M1410.29 196.08L1582.46 238.8" stroke="#132e65" stroke-width="1.5"></path><path d="M1410.29 196.08L1304.48 46.85" stroke="#132e65" stroke-width="1.5"></path><path d="M1410.29 196.08L1248.13 355.29" stroke="#132e65" stroke-width="1.5"></path><path d="M1407.32 361.12L1407.32 361.12" stroke="#132e65" stroke-width="1.5"></path><path d="M1394.77 687.57L1394.77 687.57" stroke="#132e65" stroke-width="1.5"></path><path d="M1394.77 687.57L1246.18 552.41" stroke="#132e65" stroke-width="1.5"></path><path d="M1394.77 687.57L1605.91 646.09" stroke="#132e65" stroke-width="1.5"></path><path d="M1570.99 -109.62L1570.99 -109.62" stroke="#132e65" stroke-width="1.5"></path><path d="M1570.99 -109.62L1411.03 40.04" stroke="#132e65" stroke-width="1.5"></path><path d="M1582.46 238.8L1582.46 238.8" stroke="#132e65" stroke-width="1.5"></path><path d="M1582.46 238.8L1407.32 361.12" stroke="#132e65" stroke-width="1.5"></path><path d="M1582.46 238.8L1411.03 40.04" stroke="#132e65" stroke-width="1.5"></path><path d="M1582.46 238.8L1305.28 217.45" stroke="#132e65" stroke-width="1.5"></path><path d="M1607.04 531.49L1607.04 531.49" stroke="#132e65" stroke-width="1.5"></path><path d="M1607.04 531.49L1605.91 646.09" stroke="#132e65" stroke-width="1.5"></path><path d="M1607.04 531.49L1407.32 361.12" stroke="#132e65" stroke-width="1.5"></path><path d="M1607.04 531.49L1394.77 687.57" stroke="#132e65" stroke-width="1.5"></path><path d="M1607.04 531.49L1582.46 238.8" stroke="#132e65" stroke-width="1.5"></path><path d="M1607.04 531.49L1307.41 654.85" stroke="#132e65" stroke-width="1.5"></path><path d="M1605.91 646.09L1605.91 646.09" stroke="#132e65" stroke-width="1.5"></path><circle r="5" cx="-68.65" cy="536.57" fill="#132e65"></circle><circle r="5" cx="-71.96" cy="671.94" fill="#132e65"></circle><circle r="5" cx="53.69" cy="374.84" fill="#132e65"></circle><circle r="5" cx="50.67" cy="536.91" fill="#132e65"></circle><circle r="5" cx="69.93" cy="677.52" fill="#132e65"></circle><circle r="5" cx="191.17" cy="412.45" fill="#132e65"></circle><circle r="5" cx="257.23" cy="493.05" fill="#132e65"></circle><circle r="5" cx="251.39" cy="694.44" fill="#132e65"></circle><circle r="5" cx="347.97" cy="347.79" fill="#132e65"></circle><circle r="5" cx="349.93" cy="560.04" fill="#132e65"></circle><circle r="5" cx="389.61" cy="669.55" fill="#132e65"></circle><circle r="5" cx="523.52" cy="382.47" fill="#132e65"></circle><circle r="5" cx="502.15" cy="517.24" fill="#132e65"></circle><circle r="5" cx="510.28" cy="656.72" fill="#132e65"></circle><circle r="5" cx="689.31" cy="204.8" fill="#132e65"></circle><circle r="5" cx="698.95" cy="358.94" fill="#132e65"></circle><circle r="5" cx="671.99" cy="528.78" fill="#132e65"></circle><circle r="5" cx="703.37" cy="690.8" fill="#132e65"></circle><circle r="5" cx="851.94" cy="214.51" fill="#132e65"></circle><circle r="5" cx="842.44" cy="369.22" fill="#132e65"></circle><circle r="5" cx="821.44" cy="549.6" fill="#132e65"></circle><circle r="5" cx="847.89" cy="700.58" fill="#132e65"></circle><circle r="5" cx="966.48" cy="-70.91" fill="#132e65"></circle><circle r="5" cx="1004.07" cy="72.53" fill="#132e65"></circle><circle r="5" cx="995.74" cy="229.82" fill="#132e65"></circle><circle r="5" cx="955.67" cy="401.03" fill="#132e65"></circle><circle r="5" cx="950.42" cy="540.8" fill="#132e65"></circle><circle r="5" cx="971.13" cy="694.52" fill="#132e65"></circle><circle r="5" cx="1094.41" cy="-80.46" fill="#132e65"></circle><circle r="5" cx="1121.97" cy="343.92" fill="#132e65"></circle><circle r="5" cx="1111.55" cy="497.08" fill="#132e65"></circle><circle r="5" cx="1103.01" cy="656.89" fill="#132e65"></circle><circle r="5" cx="1271.33" cy="-40.66" fill="#132e65"></circle><circle r="5" cx="1304.48" cy="46.85" fill="#132e65"></circle><circle r="5" cx="1305.28" cy="217.45" fill="#132e65"></circle><circle r="5" cx="1248.13" cy="355.29" fill="#132e65"></circle><circle r="5" cx="1246.18" cy="552.41" fill="#132e65"></circle><circle r="5" cx="1307.41" cy="654.85" fill="#132e65"></circle><circle r="5" cx="1440.2" cy="-61.92" fill="#132e65"></circle><circle r="5" cx="1411.03" cy="40.04" fill="#132e65"></circle><circle r="5" cx="1410.29" cy="196.08" fill="#132e65"></circle><circle r="5" cx="1407.32" cy="361.12" fill="#132e65"></circle><circle r="5" cx="1394.77" cy="687.57" fill="#132e65"></circle><circle r="5" cx="1570.99" cy="-109.62" fill="#132e65"></circle><circle r="5" cx="1582.46" cy="238.8" fill="#132e65"></circle><circle r="5" cx="1607.04" cy="531.49" fill="#132e65"></circle><circle r="5" cx="1605.91" cy="646.09" fill="#132e65"></circle><path d="M960.83 248.47L960.83 248.47" stroke="hsl(228.5, 77.2%, 51.5%)" stroke-width="1.5"></path><path d="M960.83 248.47L969.87 367" stroke="hsl(228.5, 77.2%, 51.5%)" stroke-width="1.5"></path><path d="M960.83 248.47L861.27 348.61" stroke="hsl(228.5, 77.2%, 51.5%)" stroke-width="1.5"></path><path d="M960.83 248.47L1110.83 351.36" stroke="hsl(228.5, 77.2%, 51.5%)" stroke-width="1.5"></path><path d="M1117.42 503.24L1117.42 503.24" stroke="hsl(228.5, 77.2%, 51.5%)" stroke-width="1.5"></path><path d="M1117.42 503.24L1241.67 542.03" stroke="hsl(228.5, 77.2%, 51.5%)" stroke-width="1.5"></path><path d="M1117.42 503.24L979.27 504.34" stroke="hsl(228.5, 77.2%, 51.5%)" stroke-width="1.5"></path><path d="M1117.42 503.24L1135.37 642.18" stroke="hsl(228.5, 77.2%, 51.5%)" stroke-width="1.5"></path><path d="M1117.42 503.24L1110.83 351.36" stroke="hsl(228.5, 77.2%, 51.5%)" stroke-width="1.5"></path><path d="M1301.11 90.7L1301.11 90.7" stroke="hsl(228.5, 77.2%, 51.5%)" stroke-width="1.5"></path><path d="M1301.11 90.7L1401.84 101.85" stroke="hsl(228.5, 77.2%, 51.5%)" stroke-width="1.5"></path><path d="M1301.11 90.7L1288.14 227.01" stroke="hsl(228.5, 77.2%, 51.5%)" stroke-width="1.5"></path><path d="M1301.11 90.7L1157.26 193.13" stroke="hsl(228.5, 77.2%, 51.5%)" stroke-width="1.5"></path><path d="M1301.11 90.7L1283.11 -111.92" stroke="hsl(228.5, 77.2%, 51.5%)" stroke-width="1.5"></path><path d="M1301.11 90.7L1459.63 232.55" stroke="hsl(228.5, 77.2%, 51.5%)" stroke-width="1.5"></path><path d="M1401.84 101.85L1401.84 101.85" stroke="hsl(228.5, 77.2%, 51.5%)" stroke-width="1.5"></path><path d="M1401.84 101.85L1459.63 232.55" stroke="hsl(228.5, 77.2%, 51.5%)" stroke-width="1.5"></path><path d="M1401.84 101.85L1288.14 227.01" stroke="hsl(228.5, 77.2%, 51.5%)" stroke-width="1.5"></path><path d="M1454.61 379.68L1454.61 379.68" stroke="hsl(228.5, 77.2%, 51.5%)" stroke-width="1.5"></path><path d="M1454.61 379.68L1574.72 357.87" stroke="hsl(228.5, 77.2%, 51.5%)" stroke-width="1.5"></path><path d="M1454.61 379.68L1422.41 507.06" stroke="hsl(228.5, 77.2%, 51.5%)" stroke-width="1.5"></path><path d="M1454.61 379.68L1459.63 232.55" stroke="hsl(228.5, 77.2%, 51.5%)" stroke-width="1.5"></path><path d="M1454.61 379.68L1247.63 369.68" stroke="hsl(228.5, 77.2%, 51.5%)" stroke-width="1.5"></path><path d="M1454.61 379.68L1603.52 532.04" stroke="hsl(228.5, 77.2%, 51.5%)" stroke-width="1.5"></path><path d="M1454.61 379.68L1612.14 220.26" stroke="hsl(228.5, 77.2%, 51.5%)" stroke-width="1.5"></path><path d="M1422.41 507.06L1422.41 507.06" stroke="hsl(228.5, 77.2%, 51.5%)" stroke-width="1.5"></path><path d="M1422.41 507.06L1435.51 646.23" stroke="hsl(228.5, 77.2%, 51.5%)" stroke-width="1.5"></path><path d="M1422.41 507.06L1603.52 532.04" stroke="hsl(228.5, 77.2%, 51.5%)" stroke-width="1.5"></path><path d="M1422.41 507.06L1241.67 542.03" stroke="hsl(228.5, 77.2%, 51.5%)" stroke-width="1.5"></path><path d="M1422.41 507.06L1574.72 357.87" stroke="hsl(228.5, 77.2%, 51.5%)" stroke-width="1.5"></path><path d="M1603.52 532.04L1603.52 532.04" stroke="hsl(228.5, 77.2%, 51.5%)" stroke-width="1.5"></path><path d="M1603.52 532.04L1603.79 693.97" stroke="hsl(228.5, 77.2%, 51.5%)" stroke-width="1.5"></path><path d="M1603.52 532.04L1574.72 357.87" stroke="hsl(228.5, 77.2%, 51.5%)" stroke-width="1.5"></path><path d="M-38.8 644.51L-38.8 644.51" stroke="hsl(228.5, 77.2%, 51.5%)" stroke-width="1.5"></path><path d="M-38.8 644.51L49.55 526.56" stroke="hsl(228.5, 77.2%, 51.5%)" stroke-width="1.5"></path><path d="M-38.8 644.51L240.04 685.32" stroke="hsl(228.5, 77.2%, 51.5%)" stroke-width="1.5"></path><path d="M49.55 526.56L49.55 526.56" stroke="hsl(228.5, 77.2%, 51.5%)" stroke-width="1.5"></path><path d="M49.55 526.56L219.96 500.3" stroke="hsl(228.5, 77.2%, 51.5%)" stroke-width="1.5"></path><path d="M49.55 526.56L240.04 685.32" stroke="hsl(228.5, 77.2%, 51.5%)" stroke-width="1.5"></path><path d="M219.96 500.3L219.96 500.3" stroke="hsl(228.5, 77.2%, 51.5%)" stroke-width="1.5"></path><path d="M219.96 500.3L398.22 551.85" stroke="hsl(228.5, 77.2%, 51.5%)" stroke-width="1.5"></path><path d="M219.96 500.3L240.04 685.32" stroke="hsl(228.5, 77.2%, 51.5%)" stroke-width="1.5"></path><path d="M240.04 685.32L240.04 685.32" stroke="hsl(228.5, 77.2%, 51.5%)" stroke-width="1.5"></path><path d="M240.04 685.32L398.22 551.85" stroke="hsl(228.5, 77.2%, 51.5%)" stroke-width="1.5"></path><path d="M240.04 685.32L517.24 680.3" stroke="hsl(228.5, 77.2%, 51.5%)" stroke-width="1.5"></path><path d="M398.22 551.85L398.22 551.85" stroke="hsl(228.5, 77.2%, 51.5%)" stroke-width="1.5"></path><path d="M398.22 551.85L555.53 507.16" stroke="hsl(228.5, 77.2%, 51.5%)" stroke-width="1.5"></path><path d="M398.22 551.85L517.24 680.3" stroke="hsl(228.5, 77.2%, 51.5%)" stroke-width="1.5"></path><path d="M555.53 507.16L555.53 507.16" stroke="hsl(228.5, 77.2%, 51.5%)" stroke-width="1.5"></path><path d="M555.53 507.16L656.26 535.92" stroke="hsl(228.5, 77.2%, 51.5%)" stroke-width="1.5"></path><path d="M555.53 507.16L517.24 680.3" stroke="hsl(228.5, 77.2%, 51.5%)" stroke-width="1.5"></path><path d="M555.53 507.16L698.45 706.97" stroke="hsl(228.5, 77.2%, 51.5%)" stroke-width="1.5"></path><path d="M517.24 680.3L517.24 680.3" stroke="hsl(228.5, 77.2%, 51.5%)" stroke-width="1.5"></path><path d="M656.26 535.92L656.26 535.92" stroke="hsl(228.5, 77.2%, 51.5%)" stroke-width="1.5"></path><path d="M656.26 535.92L825.85 526.02" stroke="hsl(228.5, 77.2%, 51.5%)" stroke-width="1.5"></path><path d="M656.26 535.92L698.45 706.97" stroke="hsl(228.5, 77.2%, 51.5%)" stroke-width="1.5"></path><path d="M656.26 535.92L517.24 680.3" stroke="hsl(228.5, 77.2%, 51.5%)" stroke-width="1.5"></path><path d="M656.26 535.92L833.97 695.65" stroke="hsl(228.5, 77.2%, 51.5%)" stroke-width="1.5"></path><path d="M698.45 706.97L698.45 706.97" stroke="hsl(228.5, 77.2%, 51.5%)" stroke-width="1.5"></path><path d="M698.45 706.97L833.97 695.65" stroke="hsl(228.5, 77.2%, 51.5%)" stroke-width="1.5"></path><path d="M698.45 706.97L517.24 680.3" stroke="hsl(228.5, 77.2%, 51.5%)" stroke-width="1.5"></path><path d="M698.45 706.97L825.85 526.02" stroke="hsl(228.5, 77.2%, 51.5%)" stroke-width="1.5"></path><path d="M698.45 706.97L944.62 650.81" stroke="hsl(228.5, 77.2%, 51.5%)" stroke-width="1.5"></path><path d="M861.27 348.61L861.27 348.61" stroke="hsl(228.5, 77.2%, 51.5%)" stroke-width="1.5"></path><path d="M861.27 348.61L969.87 367" stroke="hsl(228.5, 77.2%, 51.5%)" stroke-width="1.5"></path><path d="M861.27 348.61L825.85 526.02" stroke="hsl(228.5, 77.2%, 51.5%)" stroke-width="1.5"></path><path d="M861.27 348.61L979.27 504.34" stroke="hsl(228.5, 77.2%, 51.5%)" stroke-width="1.5"></path><path d="M825.85 526.02L825.85 526.02" stroke="hsl(228.5, 77.2%, 51.5%)" stroke-width="1.5"></path><path d="M825.85 526.02L979.27 504.34" stroke="hsl(228.5, 77.2%, 51.5%)" stroke-width="1.5"></path><path d="M825.85 526.02L833.97 695.65" stroke="hsl(228.5, 77.2%, 51.5%)" stroke-width="1.5"></path><path d="M833.97 695.65L833.97 695.65" stroke="hsl(228.5, 77.2%, 51.5%)" stroke-width="1.5"></path><path d="M833.97 695.65L944.62 650.81" stroke="hsl(228.5, 77.2%, 51.5%)" stroke-width="1.5"></path><path d="M969.87 367L969.87 367" stroke="hsl(228.5, 77.2%, 51.5%)" stroke-width="1.5"></path><path d="M969.87 367L979.27 504.34" stroke="hsl(228.5, 77.2%, 51.5%)" stroke-width="1.5"></path><path d="M979.27 504.34L979.27 504.34" stroke="hsl(228.5, 77.2%, 51.5%)" stroke-width="1.5"></path><path d="M944.62 650.81L944.62 650.81" stroke="hsl(228.5, 77.2%, 51.5%)" stroke-width="1.5"></path><path d="M944.62 650.81L979.27 504.34" stroke="hsl(228.5, 77.2%, 51.5%)" stroke-width="1.5"></path><path d="M944.62 650.81L825.85 526.02" stroke="hsl(228.5, 77.2%, 51.5%)" stroke-width="1.5"></path><path d="M944.62 650.81L1135.37 642.18" stroke="hsl(228.5, 77.2%, 51.5%)" stroke-width="1.5"></path><path d="M944.62 650.81L1117.42 503.24" stroke="hsl(228.5, 77.2%, 51.5%)" stroke-width="1.5"></path><path d="M1157.26 193.13L1157.26 193.13" stroke="hsl(228.5, 77.2%, 51.5%)" stroke-width="1.5"></path><path d="M1157.26 193.13L1288.14 227.01" stroke="hsl(228.5, 77.2%, 51.5%)" stroke-width="1.5"></path><path d="M1157.26 193.13L1110.83 351.36" stroke="hsl(228.5, 77.2%, 51.5%)" stroke-width="1.5"></path><path d="M1157.26 193.13L1247.63 369.68" stroke="hsl(228.5, 77.2%, 51.5%)" stroke-width="1.5"></path><path d="M1110.83 351.36L1110.83 351.36" stroke="hsl(228.5, 77.2%, 51.5%)" stroke-width="1.5"></path><path d="M1110.83 351.36L1247.63 369.68" stroke="hsl(228.5, 77.2%, 51.5%)" stroke-width="1.5"></path><path d="M1110.83 351.36L969.87 367" stroke="hsl(228.5, 77.2%, 51.5%)" stroke-width="1.5"></path><path d="M1135.37 642.18L1135.37 642.18" stroke="hsl(228.5, 77.2%, 51.5%)" stroke-width="1.5"></path><path d="M1135.37 642.18L1238.13 651.87" stroke="hsl(228.5, 77.2%, 51.5%)" stroke-width="1.5"></path><path d="M1283.11 -111.92L1283.11 -111.92" stroke="hsl(228.5, 77.2%, 51.5%)" stroke-width="1.5"></path><path d="M1283.11 -111.92L1458.49 -62.23" stroke="hsl(228.5, 77.2%, 51.5%)" stroke-width="1.5"></path><path d="M1283.11 -111.92L1401.84 101.85" stroke="hsl(228.5, 77.2%, 51.5%)" stroke-width="1.5"></path><path d="M1283.11 -111.92L1157.26 193.13" stroke="hsl(228.5, 77.2%, 51.5%)" stroke-width="1.5"></path><path d="M1288.14 227.01L1288.14 227.01" stroke="hsl(228.5, 77.2%, 51.5%)" stroke-width="1.5"></path><path d="M1288.14 227.01L1247.63 369.68" stroke="hsl(228.5, 77.2%, 51.5%)" stroke-width="1.5"></path><path d="M1288.14 227.01L1459.63 232.55" stroke="hsl(228.5, 77.2%, 51.5%)" stroke-width="1.5"></path><path d="M1288.14 227.01L1110.83 351.36" stroke="hsl(228.5, 77.2%, 51.5%)" stroke-width="1.5"></path><path d="M1247.63 369.68L1247.63 369.68" stroke="hsl(228.5, 77.2%, 51.5%)" stroke-width="1.5"></path><path d="M1247.63 369.68L1241.67 542.03" stroke="hsl(228.5, 77.2%, 51.5%)" stroke-width="1.5"></path><path d="M1247.63 369.68L1117.42 503.24" stroke="hsl(228.5, 77.2%, 51.5%)" stroke-width="1.5"></path><path d="M1241.67 542.03L1241.67 542.03" stroke="hsl(228.5, 77.2%, 51.5%)" stroke-width="1.5"></path><path d="M1241.67 542.03L1238.13 651.87" stroke="hsl(228.5, 77.2%, 51.5%)" stroke-width="1.5"></path><path d="M1238.13 651.87L1238.13 651.87" stroke="hsl(228.5, 77.2%, 51.5%)" stroke-width="1.5"></path><path d="M1238.13 651.87L1117.42 503.24" stroke="hsl(228.5, 77.2%, 51.5%)" stroke-width="1.5"></path><path d="M1458.49 -62.23L1458.49 -62.23" stroke="hsl(228.5, 77.2%, 51.5%)" stroke-width="1.5"></path><path d="M1458.49 -62.23L1401.84 101.85" stroke="hsl(228.5, 77.2%, 51.5%)" stroke-width="1.5"></path><path d="M1458.49 -62.23L1301.11 90.7" stroke="hsl(228.5, 77.2%, 51.5%)" stroke-width="1.5"></path><path d="M1459.63 232.55L1459.63 232.55" stroke="hsl(228.5, 77.2%, 51.5%)" stroke-width="1.5"></path><path d="M1435.51 646.23L1435.51 646.23" stroke="hsl(228.5, 77.2%, 51.5%)" stroke-width="1.5"></path><path d="M1435.51 646.23L1603.79 693.97" stroke="hsl(228.5, 77.2%, 51.5%)" stroke-width="1.5"></path><path d="M1435.51 646.23L1238.13 651.87" stroke="hsl(228.5, 77.2%, 51.5%)" stroke-width="1.5"></path><path d="M1435.51 646.23L1603.52 532.04" stroke="hsl(228.5, 77.2%, 51.5%)" stroke-width="1.5"></path><path d="M1435.51 646.23L1241.67 542.03" stroke="hsl(228.5, 77.2%, 51.5%)" stroke-width="1.5"></path><path d="M1435.51 646.23L1454.61 379.68" stroke="hsl(228.5, 77.2%, 51.5%)" stroke-width="1.5"></path><path d="M1612.14 220.26L1612.14 220.26" stroke="hsl(228.5, 77.2%, 51.5%)" stroke-width="1.5"></path><path d="M1612.14 220.26L1574.72 357.87" stroke="hsl(228.5, 77.2%, 51.5%)" stroke-width="1.5"></path><path d="M1612.14 220.26L1459.63 232.55" stroke="hsl(228.5, 77.2%, 51.5%)" stroke-width="1.5"></path><path d="M1574.72 357.87L1574.72 357.87" stroke="hsl(228.5, 77.2%, 51.5%)" stroke-width="1.5"></path><path d="M1603.79 693.97L1603.79 693.97" stroke="hsl(228.5, 77.2%, 51.5%)" stroke-width="1.5"></path><path d="M1603.79 693.97L1422.41 507.06" stroke="hsl(228.5, 77.2%, 51.5%)" stroke-width="1.5"></path><circle r="25" cx="960.83" cy="248.47" fill="url(&quot;#SvgjsRadialGradient1001&quot;)"></circle><circle r="25" cx="1117.42" cy="503.24" fill="url(&quot;#SvgjsRadialGradient1001&quot;)"></circle><circle r="25" cx="1301.11" cy="90.7" fill="url(&quot;#SvgjsRadialGradient1001&quot;)"></circle><circle r="25" cx="1401.84" cy="101.85" fill="url(&quot;#SvgjsRadialGradient1001&quot;)"></circle><circle r="25" cx="1454.61" cy="379.68" fill="url(&quot;#SvgjsRadialGradient1001&quot;)"></circle><circle r="25" cx="1422.41" cy="507.06" fill="url(&quot;#SvgjsRadialGradient1001&quot;)"></circle><circle r="25" cx="1603.52" cy="532.04" fill="url(&quot;#SvgjsRadialGradient1001&quot;)"></circle><circle r="5" cx="-38.8" cy="644.51" fill="#8b9ad9"></circle><circle r="5" cx="49.55" cy="526.56" fill="#8b9ad9"></circle><circle r="5" cx="219.96" cy="500.3" fill="#8b9ad9"></circle><circle r="5" cx="240.04" cy="685.32" fill="#8b9ad9"></circle><circle r="5" cx="398.22" cy="551.85" fill="#8b9ad9"></circle><circle r="5" cx="555.53" cy="507.16" fill="#8b9ad9"></circle><circle r="5" cx="517.24" cy="680.3" fill="#8b9ad9"></circle><circle r="5" cx="656.26" cy="535.92" fill="#8b9ad9"></circle><circle r="5" cx="698.45" cy="706.97" fill="#8b9ad9"></circle><circle r="5" cx="861.27" cy="348.61" fill="#8b9ad9"></circle><circle r="5" cx="825.85" cy="526.02" fill="#8b9ad9"></circle><circle r="5" cx="833.97" cy="695.65" fill="#8b9ad9"></circle><circle r="5" cx="969.87" cy="367" fill="#8b9ad9"></circle><circle r="5" cx="979.27" cy="504.34" fill="#8b9ad9"></circle><circle r="5" cx="944.62" cy="650.81" fill="#8b9ad9"></circle><circle r="5" cx="1157.26" cy="193.13" fill="#8b9ad9"></circle><circle r="5" cx="1110.83" cy="351.36" fill="#8b9ad9"></circle><circle r="5" cx="1135.37" cy="642.18" fill="#8b9ad9"></circle><circle r="5" cx="1283.11" cy="-111.92" fill="#8b9ad9"></circle><circle r="5" cx="1288.14" cy="227.01" fill="#8b9ad9"></circle><circle r="5" cx="1247.63" cy="369.68" fill="#8b9ad9"></circle><circle r="5" cx="1241.67" cy="542.03" fill="#8b9ad9"></circle><circle r="5" cx="1238.13" cy="651.87" fill="#8b9ad9"></circle><circle r="5" cx="1458.49" cy="-62.23" fill="#8b9ad9"></circle><circle r="5" cx="1459.63" cy="232.55" fill="#8b9ad9"></circle><circle r="5" cx="1435.51" cy="646.23" fill="#8b9ad9"></circle><circle r="5" cx="1612.14" cy="220.26" fill="#8b9ad9"></circle><circle r="5" cx="1574.72" cy="357.87" fill="#8b9ad9"></circle><circle r="5" cx="1603.79" cy="693.97" fill="#8b9ad9"></circle></g><defs><mask id="SvgjsMask1000"><rect width="1440" height="560" fill="#ffffff"></rect></mask><radialGradient id="SvgjsRadialGradient1001"><stop stop-color="#ffffff" offset="0.1"></stop><stop stop-color="#1735b3" offset="0.2"></stop><stop stop-color="rgba(23, 53, 179, 0)" offset="1"></stop></radialGradient></defs></svg>