<svg xmlns="http://www.w3.org/2000/svg" version="1.1" xmlns:xlink="http://www.w3.org/1999/xlink" xmlns:svgjs="http://svgjs.dev/svgjs" width="1440" height="560" preserveAspectRatio="none" viewBox="0 0 1440 560"><g mask="url(&quot;#SvgjsMask1062&quot;)" fill="none"><rect width="1440" height="560" x="0" y="0" fill="url(&quot;#SvgjsLinearGradient1063&quot;)"></rect><path d="M1321.899,281.597C1370.439,280.805,1406.145,240.784,1428.98,197.944C1450.253,158.033,1456.545,110.605,1433.911,71.45C1411.296,32.328,1367.082,13.407,1321.899,12.706C1275.304,11.984,1227.682,27.922,1203.705,67.881C1179.119,108.854,1185.465,159.726,1208.59,201.54C1232.578,244.915,1272.34,282.406,1321.899,281.597" fill="rgba(28, 83, 142, 0.4)" class="triangle-float2"></path><path d="M537.1076247832864 204.2156496673408L567.6983020824886 110.06722575254577 411.1803275606949 111.25542176114007z" fill="rgba(28, 83, 142, 0.4)" class="triangle-float3"></path><path d="M1257.769075411769 537.2842730408111L1404.4779601663454 565.9467178278421 1364.098320673832 441.6709661246621z" fill="rgba(28, 83, 142, 0.4)" class="triangle-float3"></path><path d="M316.382,369.882C349.089,371.698,384.933,362.874,400.864,334.252C416.509,306.143,402.698,272.763,385.605,245.51C369.832,220.362,346.052,200.483,316.382,199.555C285.118,198.577,254.347,213.549,239.226,240.93C224.53,267.543,231.116,299.604,246.725,325.692C261.857,350.982,286.956,368.248,316.382,369.882" fill="rgba(28, 83, 142, 0.4)" class="triangle-float1"></path><path d="M179.349,663.959C235.559,666.661,297.492,657.311,327.144,609.482C357.973,559.754,343.818,496.755,314.342,446.214C285.125,396.117,237.311,354.134,179.349,356.066C123.809,357.918,84.752,405.43,59.094,454.723C35.716,499.637,29.039,552.467,54.27,596.367C79.58,640.406,128.614,661.52,179.349,663.959" fill="rgba(28, 83, 142, 0.4)" class="triangle-float2"></path><path d="M137.662,487.231C156.108,487.288,174.418,480.462,184.167,464.803C194.461,448.268,194.676,427.512,185.556,410.301C175.802,391.894,158.483,376.378,137.662,377.041C117.632,377.679,104.103,395.456,94.774,413.192C86.222,429.451,82.444,448.62,91.652,464.517C100.841,480.38,119.33,487.174,137.662,487.231" fill="rgba(28, 83, 142, 0.4)" class="triangle-float1"></path><path d="M125.582164826585 666.6388559099336L283.449114218245 612.280906008583 229.09116431689432 454.413956616923 71.22421492523436 508.7719065182736z" fill="rgba(28, 83, 142, 0.4)" class="triangle-float1"></path><path d="M1239.003569289911 613.0817398859601L1406.6101241842443 616.0073231840355 1409.5357074823196 448.4007682897022 1241.9291525879864 445.4751849916268z" fill="rgba(28, 83, 142, 0.4)" class="triangle-float1"></path><path d="M960.543,654.032C1012.94,652.887,1059.673,622.01,1084.764,575.996C1108.815,531.889,1102.598,480.197,1079.724,435.468C1054.166,385.491,1016.675,332.767,960.543,333.087C904.722,333.405,870.181,387.676,843.692,436.813C818.968,482.675,801.867,535.754,826.55,581.638C852.327,629.556,906.145,655.221,960.543,654.032" fill="rgba(28, 83, 142, 0.4)" class="triangle-float3"></path><path d="M565.5680406168779 287.3820625493578L466.35120941924606 275.199767496579 454.1689143664673 374.41659869421073 553.385745564099 386.5988937469896z" fill="rgba(28, 83, 142, 0.4)" class="triangle-float3"></path></g><defs><mask id="SvgjsMask1062"><rect width="1440" height="560" fill="#ffffff"></rect></mask><linearGradient x1="15.28%" y1="-39.29%" x2="84.72%" y2="139.29%" gradientUnits="userSpaceOnUse" id="SvgjsLinearGradient1063"><stop stop-color="#0e2a47" offset="0"></stop><stop stop-color="#00459e" offset="1"></stop></linearGradient><style>
                @keyframes float1 {
                    0%{transform: translate(0, 0)}
                    50%{transform: translate(-10px, 0)}
                    100%{transform: translate(0, 0)}
                }

                .triangle-float1 {
                    animation: float1 5s infinite;
                }

                @keyframes float2 {
                    0%{transform: translate(0, 0)}
                    50%{transform: translate(-5px, -5px)}
                    100%{transform: translate(0, 0)}
                }

                .triangle-float2 {
                    animation: float2 4s infinite;
                }

                @keyframes float3 {
                    0%{transform: translate(0, 0)}
                    50%{transform: translate(0, -10px)}
                    100%{transform: translate(0, 0)}
                }

                .triangle-float3 {
                    animation: float3 6s infinite;
                }
            </style></defs></svg>