<svg xmlns="http://www.w3.org/2000/svg" version="1.1" xmlns:xlink="http://www.w3.org/1999/xlink" xmlns:svgjs="http://svgjs.dev/svgjs" width="1440" height="560" preserveAspectRatio="none" viewBox="0 0 1440 560"><g mask="url(&quot;#SvgjsMask1330&quot;)" fill="none"><rect width="1440" height="560" x="0" y="0" fill="url(&quot;#SvgjsLinearGradient1331&quot;)"></rect><path d="M434.05 235.86L467.84 235.86L467.84 269.65L434.05 269.65z" fill="#e73635"></path><path d="M696.58 406.95 a26.08 26.08 0 1 0 52.16 0 a26.08 26.08 0 1 0 -52.16 0z" stroke="#037b0b"></path><path d="M695.43 174.59L727.29 174.59L727.29 206.45L695.43 206.45z" fill="#d3b714"></path><path d="M39.55 270.21a20.7 20.7 0 1 0-40.73-7.39z" stroke="#e73635"></path><path d="M490.26 74.85L519.62 74.85L519.62 104.21L490.26 104.21z" fill="#037b0b"></path><path d="M204.34 110.36 a0.81 0.81 0 1 0 1.62 0 a0.81 0.81 0 1 0 -1.62 0z" stroke="#037b0b"></path><path d="M521.92 512.91 a20.97 20.97 0 1 0 41.94 0 a20.97 20.97 0 1 0 -41.94 0z" stroke="#e73635"></path><path d="M780.86 339.96L829.65 339.96L829.65 382.03L780.86 382.03z" fill="#037b0b"></path><path d="M1186.59 341.32 a11.81 11.81 0 1 0 23.62 0 a11.81 11.81 0 1 0 -23.62 0z" stroke="#037b0b"></path><path d="M1178.56 89.76L1228.69 89.76L1228.69 124.34L1178.56 124.34z" stroke="#d3b714"></path><path d="M934.2 484.96a44.99 44.99 0 1 0 48.31-75.91z" stroke="#d3b714"></path><path d="M158.21 105.15 a31.4 31.4 0 1 0 62.8 0 a31.4 31.4 0 1 0 -62.8 0z" stroke="#037b0b"></path><path d="M229.1 123.82 a46.78 46.78 0 1 0 93.56 0 a46.78 46.78 0 1 0 -93.56 0z" stroke="#d3b714"></path><path d="M508.93 336.87L544.55 336.87L544.55 386.25L508.93 386.25z" fill="#d3b714"></path><path d="M1151.34 44.9 a17.48 17.48 0 1 0 34.96 0 a17.48 17.48 0 1 0 -34.96 0z" stroke="#e73635"></path><path d="M381.36 475.92L430.09 475.92L430.09 524.65L381.36 524.65z" stroke="#d3b714"></path><path d="M389.72 65.61L430.91 65.61L430.91 86.28L389.72 86.28z" fill="#e73635"></path><path d="M40.52 527.84L71.88 527.84L71.88 559.2L40.52 559.2z" stroke="#e73635"></path><path d="M70.84 73.26L124.44 73.26L124.44 110.23L70.84 110.23z" fill="#d3b714"></path><path d="M375.65 543.71L382.31 543.71L382.31 568.88L375.65 568.88z" stroke="#e73635"></path><path d="M1231.66 217.31L1267.82 217.31L1267.82 253.47L1231.66 253.47z" fill="#e73635"></path><path d="M231.84 170.09a8.43 8.43 0 1 0 16.14 4.86z" stroke="#d3b714"></path><path d="M491.14 530.18a46.88 46.88 0 1 0 68.98-63.51z" stroke="#037b0b"></path><path d="M1125.1 233.45L1133.95 233.45L1133.95 242.3L1125.1 242.3z" stroke="#e73635"></path><path d="M1087.29 526.14a54.28 54.28 0 1 0 5.43-108.42z" stroke="#d3b714"></path><path d="M139.63 86.33 a4.76 4.76 0 1 0 9.52 0 a4.76 4.76 0 1 0 -9.52 0z" fill="#e73635"></path><path d="M357.41 526.79L407.37 526.79L407.37 576.75L357.41 576.75z" stroke="#e73635"></path><path d="M217.9 488.56 a7.47 7.47 0 1 0 14.94 0 a7.47 7.47 0 1 0 -14.94 0z" fill="#037b0b"></path><path d="M1271 274.31L1291.12 274.31L1291.12 294.43L1271 294.43z" fill="#037b0b"></path><path d="M813.51 511.57 a11.07 11.07 0 1 0 22.14 0 a11.07 11.07 0 1 0 -22.14 0z" fill="#d3b714"></path><path d="M564.12 287.36a37.49 37.49 0 1 0 71.76 21.74z" stroke="#d3b714"></path><path d="M111.14 22.05L120.14 22.05L120.14 53.1L111.14 53.1z" fill="#d3b714"></path><path d="M1215.9 273.38L1217.47 273.38L1217.47 305.72L1215.9 305.72z" stroke="#e73635"></path></g><defs><mask id="SvgjsMask1330"><rect width="1440" height="560" fill="#ffffff"></rect></mask><linearGradient x1="15.28%" y1="-39.29%" x2="84.72%" y2="139.29%" gradientUnits="userSpaceOnUse" id="SvgjsLinearGradient1331"><stop stop-color="#0e2a47" offset="0"></stop><stop stop-color="rgba(0, 60, 137, 1)" offset="1"></stop></linearGradient></defs></svg>