<svg xmlns="http://www.w3.org/2000/svg" version="1.1" xmlns:xlink="http://www.w3.org/1999/xlink" xmlns:svgjs="http://svgjs.dev/svgjs" width="1440" height="560" preserveAspectRatio="none" viewBox="0 0 1440 560"><g mask="url(&quot;#SvgjsMask2013&quot;)" fill="none"><rect width="1440" height="560" x="0" y="0" fill="url(&quot;#SvgjsLinearGradient2014&quot;)"></rect><rect width="192" height="192" clip-path="url(&quot;#SvgjsClipPath2015&quot;)" x="-12.15" y="23.38" fill="url(&quot;#SvgjsPattern2016&quot;)" transform="rotate(259.53, 83.85, 119.38)"></rect><path d="M192.55 480.89a5.6 5.6 0 1 0-8.57-7.21 5.6 5.6 0 1 0 8.57 7.21zM180.3 470.59a5.6 5.6 0 1 0-8.57-7.2 5.6 5.6 0 1 0 8.57 7.2zM168.05 460.3a5.6 5.6 0 1 0-8.57-7.21 5.6 5.6 0 1 0 8.57 7.21zM155.8 450.01a5.6 5.6 0 1 0-8.57-7.21 5.6 5.6 0 1 0 8.57 7.21z" stroke="#037b0b" stroke-width="1" stroke-dasharray="4, 4"></path><rect width="108" height="108" clip-path="url(&quot;#SvgjsClipPath2017&quot;)" x="483.32" y="297.96" fill="url(&quot;#SvgjsPattern2018&quot;)" transform="rotate(159.93, 537.32, 351.96)"></rect><path d="M895.28 2.23L900.34 14 889.97 21.51 895.03 33.28 884.66 40.8 889.71 52.56 879.34 60.08M887.57 0.11L892.63 11.87 882.26 19.39 887.31 31.15 876.94 38.67 882 50.44 871.63 57.95" stroke="#e73635" stroke-width="1.77" stroke-dasharray="4, 4"></path><path d="M374.49 559.4 L363.38 548.88L379.70662519689404 543.3683748031059z" stroke="#e73635" stroke-width="1" stroke-dasharray="3, 3"></path><rect width="120" height="120" clip-path="url(&quot;#SvgjsClipPath2019&quot;)" x="211.81" y="320.87" fill="url(&quot;#SvgjsPattern2020&quot;)" transform="rotate(170.67, 271.81, 380.87)"></rect><rect width="372.40000000000003" height="372.40000000000003" clip-path="url(&quot;#SvgjsClipPath2021&quot;)" x="732.81" y="-172.05" fill="url(&quot;#SvgjsPattern2022&quot;)" transform="rotate(209.9, 919.01, 14.15)"></rect><rect width="229.2" height="229.2" clip-path="url(&quot;#SvgjsClipPath2023&quot;)" x="1137.46" y="-53.06" fill="url(&quot;#SvgjsPattern2024&quot;)" transform="rotate(77.3, 1252.06, 61.54)"></rect><path d="M1146.54 496.9 L1251.29 394.12L1275.1803860978705 521.7753860978705z" fill="#d3b714"></path><path d="M1438.14 10.49L1425.83 14.03 1419.67 2.8 1407.37 6.35 1401.21-4.88 1388.9-1.33 1382.74-12.56M1441.21 3.1L1428.91 6.65 1422.75-4.58 1410.44-1.04 1404.28-12.26 1391.98-8.72 1385.82-19.95" stroke="#e73635" stroke-width="1" stroke-dasharray="4, 4"></path><rect width="60" height="60" clip-path="url(&quot;#SvgjsClipPath2025&quot;)" x="728.04" y="330.83" fill="url(&quot;#SvgjsPattern2026&quot;)" transform="rotate(98.11, 758.04, 360.83)"></rect><rect width="252" height="252" clip-path="url(&quot;#SvgjsClipPath2027&quot;)" x="1296.62" y="201.21" fill="url(&quot;#SvgjsPattern2028&quot;)" transform="rotate(263.78, 1422.62, 327.21)"></rect></g><defs><mask id="SvgjsMask2013"><rect width="1440" height="560" fill="#ffffff"></rect></mask><linearGradient x1="84.72%" y1="139.29%" x2="15.28%" y2="-39.29%" gradientUnits="userSpaceOnUse" id="SvgjsLinearGradient2014"><stop stop-color="#0e2a47" offset="0"></stop><stop stop-color="#00459e" offset="1"></stop></linearGradient><pattern x="0" y="0" width="6" height="6" patternUnits="userSpaceOnUse" id="SvgjsPattern2016"><path d="M3 1L3 5M1 3L5 3" stroke="#e73635" fill="none" stroke-width="1.7"></path></pattern><clipPath id="SvgjsClipPath2015"><circle r="48" cx="83.85" cy="119.38"></circle></clipPath><pattern x="0" y="0" width="108" height="6" patternUnits="userSpaceOnUse" id="SvgjsPattern2018"><rect width="108" height="3" x="0" y="0" fill="#037b0b"></rect><rect width="108" height="3" x="0" y="3" fill="rgba(0, 0, 0, 0)"></rect></pattern><clipPath id="SvgjsClipPath2017"><circle r="27" cx="537.32" cy="351.96"></circle></clipPath><pattern x="0" y="0" width="120" height="6" patternUnits="userSpaceOnUse" id="SvgjsPattern2020"><rect width="120" height="3" x="0" y="0" fill="#e73635"></rect><rect width="120" height="3" x="0" y="3" fill="rgba(0, 0, 0, 0)"></rect></pattern><clipPath id="SvgjsClipPath2019"><circle r="30" cx="271.81" cy="380.87"></circle></clipPath><pattern x="0" y="0" width="9.8" height="9.8" patternUnits="userSpaceOnUse" id="SvgjsPattern2022"><path d="M0 9.8L4.9 0L9.8 9.8" stroke="#e73635" fill="none"></path></pattern><clipPath id="SvgjsClipPath2021"><circle r="93.10000000000001" cx="919.01" cy="14.15"></circle></clipPath><pattern x="0" y="0" width="11.46" height="11.46" patternUnits="userSpaceOnUse" id="SvgjsPattern2024"><path d="M5.73 1L5.73 10.46M1 5.73L10.46 5.73" stroke="#037b0b" fill="none" stroke-width="1.19"></path></pattern><clipPath id="SvgjsClipPath2023"><circle r="57.3" cx="1252.06" cy="61.54"></circle></clipPath><pattern x="0" y="0" width="60" height="6" patternUnits="userSpaceOnUse" id="SvgjsPattern2026"><rect width="60" height="3" x="0" y="0" fill="#e73635"></rect><rect width="60" height="3" x="0" y="3" fill="rgba(0, 0, 0, 0)"></rect></pattern><clipPath id="SvgjsClipPath2025"><circle r="15" cx="758.04" cy="360.83"></circle></clipPath><pattern x="0" y="0" width="6" height="6" patternUnits="userSpaceOnUse" id="SvgjsPattern2028"><path d="M0 6L3 0L6 6" stroke="#e73635" fill="none"></path></pattern><clipPath id="SvgjsClipPath2027"><circle r="63" cx="1422.62" cy="327.21"></circle></clipPath></defs></svg>