<svg xmlns="http://www.w3.org/2000/svg" version="1.1" xmlns:xlink="http://www.w3.org/1999/xlink" xmlns:svgjs="http://svgjs.dev/svgjs" width="1440" height="560" preserveAspectRatio="none" viewBox="0 0 1440 560"><g mask="url(&quot;#SvgjsMask1085&quot;)" fill="none"><rect width="1440" height="560" x="0" y="0" fill="url(&quot;#SvgjsLinearGradient1086&quot;)"></rect><path d="M197.51 -59.02L262.46 -21.52L262.46 53.48L197.51 90.98L132.55 53.48L132.55 -21.52zM197.51 390.98L262.46 428.48L262.46 503.48L197.51 540.98L132.55 503.48L132.55 428.48zM522.28 503.48L587.23 540.98L587.23 615.98L522.28 653.48L457.32 615.98L457.32 540.98zM587.23 165.98L652.18 203.48L652.18 278.48L587.23 315.98L522.28 278.48L522.28 203.48zM652.18 278.48L717.14 315.98L717.14 390.98L652.18 428.48L587.23 390.98L587.23 315.98zM717.14 165.98L782.09 203.48L782.09 278.48L717.14 315.98L652.18 278.48L652.18 203.48zM1171.81 278.48L1236.77 315.98L1236.77 390.98L1171.81 428.48L1106.86 390.98L1106.86 315.98zM1236.77 -59.02L1301.72 -21.52L1301.72 53.48L1236.77 90.98L1171.81 53.48L1171.81 -21.52zM1301.72 278.48L1366.67 315.98L1366.67 390.98L1301.72 428.48L1236.77 390.98L1236.77 315.98z" stroke="#03305d" stroke-width="2"></path><path d="M190.01 -59.02 a7.5 7.5 0 1 0 15 0 a7.5 7.5 0 1 0 -15 0zM254.96 -21.52 a7.5 7.5 0 1 0 15 0 a7.5 7.5 0 1 0 -15 0zM254.96 53.48 a7.5 7.5 0 1 0 15 0 a7.5 7.5 0 1 0 -15 0zM190.01 90.98 a7.5 7.5 0 1 0 15 0 a7.5 7.5 0 1 0 -15 0zM125.05 53.48 a7.5 7.5 0 1 0 15 0 a7.5 7.5 0 1 0 -15 0zM125.05 -21.52 a7.5 7.5 0 1 0 15 0 a7.5 7.5 0 1 0 -15 0zM190.01 390.98 a7.5 7.5 0 1 0 15 0 a7.5 7.5 0 1 0 -15 0zM254.96 428.48 a7.5 7.5 0 1 0 15 0 a7.5 7.5 0 1 0 -15 0zM254.96 503.48 a7.5 7.5 0 1 0 15 0 a7.5 7.5 0 1 0 -15 0zM190.01 540.98 a7.5 7.5 0 1 0 15 0 a7.5 7.5 0 1 0 -15 0zM125.05 503.48 a7.5 7.5 0 1 0 15 0 a7.5 7.5 0 1 0 -15 0zM125.05 428.48 a7.5 7.5 0 1 0 15 0 a7.5 7.5 0 1 0 -15 0zM514.78 503.48 a7.5 7.5 0 1 0 15 0 a7.5 7.5 0 1 0 -15 0zM579.73 540.98 a7.5 7.5 0 1 0 15 0 a7.5 7.5 0 1 0 -15 0zM579.73 615.98 a7.5 7.5 0 1 0 15 0 a7.5 7.5 0 1 0 -15 0zM514.78 653.48 a7.5 7.5 0 1 0 15 0 a7.5 7.5 0 1 0 -15 0zM449.82 615.98 a7.5 7.5 0 1 0 15 0 a7.5 7.5 0 1 0 -15 0zM449.82 540.98 a7.5 7.5 0 1 0 15 0 a7.5 7.5 0 1 0 -15 0zM579.73 165.98 a7.5 7.5 0 1 0 15 0 a7.5 7.5 0 1 0 -15 0zM644.68 203.48 a7.5 7.5 0 1 0 15 0 a7.5 7.5 0 1 0 -15 0zM644.68 278.48 a7.5 7.5 0 1 0 15 0 a7.5 7.5 0 1 0 -15 0zM579.73 315.98 a7.5 7.5 0 1 0 15 0 a7.5 7.5 0 1 0 -15 0zM514.78 278.48 a7.5 7.5 0 1 0 15 0 a7.5 7.5 0 1 0 -15 0zM514.78 203.48 a7.5 7.5 0 1 0 15 0 a7.5 7.5 0 1 0 -15 0zM709.64 315.98 a7.5 7.5 0 1 0 15 0 a7.5 7.5 0 1 0 -15 0zM709.64 390.98 a7.5 7.5 0 1 0 15 0 a7.5 7.5 0 1 0 -15 0zM644.68 428.48 a7.5 7.5 0 1 0 15 0 a7.5 7.5 0 1 0 -15 0zM579.73 390.98 a7.5 7.5 0 1 0 15 0 a7.5 7.5 0 1 0 -15 0zM709.64 165.98 a7.5 7.5 0 1 0 15 0 a7.5 7.5 0 1 0 -15 0zM774.59 203.48 a7.5 7.5 0 1 0 15 0 a7.5 7.5 0 1 0 -15 0zM774.59 278.48 a7.5 7.5 0 1 0 15 0 a7.5 7.5 0 1 0 -15 0zM1164.31 278.48 a7.5 7.5 0 1 0 15 0 a7.5 7.5 0 1 0 -15 0zM1229.27 315.98 a7.5 7.5 0 1 0 15 0 a7.5 7.5 0 1 0 -15 0zM1229.27 390.98 a7.5 7.5 0 1 0 15 0 a7.5 7.5 0 1 0 -15 0zM1164.31 428.48 a7.5 7.5 0 1 0 15 0 a7.5 7.5 0 1 0 -15 0zM1099.36 390.98 a7.5 7.5 0 1 0 15 0 a7.5 7.5 0 1 0 -15 0zM1099.36 315.98 a7.5 7.5 0 1 0 15 0 a7.5 7.5 0 1 0 -15 0zM1229.27 -59.02 a7.5 7.5 0 1 0 15 0 a7.5 7.5 0 1 0 -15 0zM1294.22 -21.52 a7.5 7.5 0 1 0 15 0 a7.5 7.5 0 1 0 -15 0zM1294.22 53.48 a7.5 7.5 0 1 0 15 0 a7.5 7.5 0 1 0 -15 0zM1229.27 90.98 a7.5 7.5 0 1 0 15 0 a7.5 7.5 0 1 0 -15 0zM1164.31 53.48 a7.5 7.5 0 1 0 15 0 a7.5 7.5 0 1 0 -15 0zM1164.31 -21.52 a7.5 7.5 0 1 0 15 0 a7.5 7.5 0 1 0 -15 0zM1294.22 278.48 a7.5 7.5 0 1 0 15 0 a7.5 7.5 0 1 0 -15 0zM1359.17 315.98 a7.5 7.5 0 1 0 15 0 a7.5 7.5 0 1 0 -15 0zM1359.17 390.98 a7.5 7.5 0 1 0 15 0 a7.5 7.5 0 1 0 -15 0zM1294.22 428.48 a7.5 7.5 0 1 0 15 0 a7.5 7.5 0 1 0 -15 0z" fill="#03305d"></path><path d="M17.72 277.08L61.02 302.08L61.02 352.08L17.72 377.08L-25.58 352.08L-25.58 302.08zM104.33 -22.92L147.63 2.08L147.63 52.08L104.33 77.08L61.02 52.08L61.02 2.08zM104.33 127.08L147.63 152.08L147.63 202.08L104.33 227.08L61.02 202.08L61.02 152.08zM104.33 427.08L147.63 452.08L147.63 502.08L104.33 527.08L61.02 502.08L61.02 452.08zM147.63 502.08L190.93 527.08L190.93 577.08L147.63 602.08L104.33 577.08L104.33 527.08zM234.23 202.08L277.53 227.08L277.53 277.08L234.23 302.08L190.93 277.08L190.93 227.08zM190.93 277.08L234.23 302.08L234.23 352.08L190.93 377.08L147.63 352.08L147.63 302.08zM190.93 427.08L234.23 452.08L234.23 502.08L190.93 527.08L147.63 502.08L147.63 452.08zM494.05 202.08L537.35 227.08L537.35 277.08L494.05 302.08L450.75 277.08L450.75 227.08zM537.35 -22.92L580.65 2.08L580.65 52.08L537.35 77.08L494.05 52.08L494.05 2.08zM580.65 202.08L623.96 227.08L623.96 277.08L580.65 302.08L537.35 277.08L537.35 227.08zM537.35 427.08L580.65 452.08L580.65 502.08L537.35 527.08L494.05 502.08L494.05 452.08zM623.96 277.08L667.26 302.08L667.26 352.08L623.96 377.08L580.65 352.08L580.65 302.08zM710.56 277.08L753.86 302.08L753.86 352.08L710.56 377.08L667.26 352.08L667.26 302.08zM797.17 127.08L840.47 152.08L840.47 202.08L797.17 227.08L753.86 202.08L753.86 152.08zM927.07 52.08L970.38 77.08L970.38 127.08L927.07 152.08L883.77 127.08L883.77 77.08zM883.77 277.08L927.07 302.08L927.07 352.08L883.77 377.08L840.47 352.08L840.47 302.08zM1013.68 52.08L1056.98 77.08L1056.98 127.08L1013.68 152.08L970.38 127.08L970.38 77.08zM970.38 127.08L1013.68 152.08L1013.68 202.08L970.38 227.08L927.07 202.08L927.07 152.08zM970.38 427.08L1013.68 452.08L1013.68 502.08L970.38 527.08L927.07 502.08L927.07 452.08zM1100.28 52.08L1143.59 77.08L1143.59 127.08L1100.28 152.08L1056.98 127.08L1056.98 77.08zM1100.28 202.08L1143.59 227.08L1143.59 277.08L1100.28 302.08L1056.98 277.08L1056.98 227.08zM1056.98 277.08L1100.28 302.08L1100.28 352.08L1056.98 377.08L1013.68 352.08L1013.68 302.08zM1143.59 -22.92L1186.89 2.08L1186.89 52.08L1143.59 77.08L1100.28 52.08L1100.28 2.08zM1143.59 127.08L1186.89 152.08L1186.89 202.08L1143.59 227.08L1100.28 202.08L1100.28 152.08zM1230.19 127.08L1273.49 152.08L1273.49 202.08L1230.19 227.08L1186.89 202.08L1186.89 152.08zM1230.19 277.08L1273.49 302.08L1273.49 352.08L1230.19 377.08L1186.89 352.08L1186.89 302.08zM1273.49 502.08L1316.8 527.08L1316.8 577.08L1273.49 602.08L1230.19 577.08L1230.19 527.08zM1316.8 -22.92L1360.1 2.08L1360.1 52.08L1316.8 77.08L1273.49 52.08L1273.49 2.08zM1403.4 277.08L1446.7 302.08L1446.7 352.08L1403.4 377.08L1360.1 352.08L1360.1 302.08z" stroke="rgba(6, 80, 156, 0.93)" stroke-width="2"></path></g><defs><mask id="SvgjsMask1085"><rect width="1440" height="560" fill="#ffffff"></rect></mask><linearGradient x1="15.28%" y1="-39.29%" x2="84.72%" y2="139.29%" gradientUnits="userSpaceOnUse" id="SvgjsLinearGradient1086"><stop stop-color="#0e2a47" offset="0"></stop><stop stop-color="#00459e" offset="1"></stop></linearGradient></defs></svg>